<?xml version="1.0" encoding="utf-8"?>
<!-- Generator: Adobe Illustrator 16.2.0, SVG Export Plug-In . SVG Version: 6.00 Build 0)  -->
<!DOCTYPE svg PUBLIC "-//W3C//DTD SVG 1.1//EN" "http://www.w3.org/Graphics/SVG/1.1/DTD/svg11.dtd">
<svg version="1.1" id="Слой_1" xmlns="http://www.w3.org/2000/svg" xmlns:xlink="http://www.w3.org/1999/xlink" x="0px" y="0px"
	 width="51.0244141px" height="51.0239258px" viewBox="0 0 51.0244141 51.0239258"
	 enable-background="new 0 0 51.0244141 51.0239258" xml:space="preserve">
<g>
	<g>
		
			<radialGradient id="SVGID_1_" cx="25.5126953" cy="25.5117188" r="21.8527832" gradientTransform="matrix(0.9728774 0 0 0.9728665 0.6923218 0.6924438)" gradientUnits="userSpaceOnUse">
			<stop  offset="0" style="stop-color:#E95D2C"/>
			<stop  offset="1" style="stop-color:#E42A28"/>
		</radialGradient>
		<path fill="url(#SVGID_1_)" d="M46.7724609,25.5087891c0,11.7456055-9.5175781,21.2631836-21.2636719,21.2631836
			c-11.7382813,0-21.2558594-9.5175781-21.2558594-21.2631836c0-11.7446289,9.5175781-21.2568359,21.2558594-21.2568359
			C37.2548828,4.2519531,46.7724609,13.7641602,46.7724609,25.5087891z"/>
		<path opacity="0.2" fill="#FFFFFF" d="M37.9150391,10.6821289c0,2.4589844-5.5527344,4.4570313-12.40625,4.4570313
			c-6.8457031,0-12.4003906-1.9980469-12.4003906-4.4570313c0-2.4692383,5.5546875-4.4624023,12.4003906-4.4624023
			C32.3623047,6.2197266,37.9150391,8.2128906,37.9150391,10.6821289z"/>
	</g>
	<g>
		<g>
			<line fill="#FFFFFF" x1="17.9111328" y1="18.3076172" x2="33.6748047" y2="34.065918"/>
			<path fill="#FFFFFF" d="M31.8076172,35.9311523L16.0498047,20.168457c-1.0253906-1.0258789-1.03125-2.6914063,0-3.7231445
				c1.0332031-1.0307617,2.6972656-1.0307617,3.7226563,0l15.7617188,15.7583008c1.0292969,1.03125,1.03125,2.6972656,0,3.7275391
				C34.5048828,36.9575195,32.8388672,36.9575195,31.8076172,35.9311523z"/>
		</g>
		<g>
			<line fill="#FFFFFF" x1="33.6748047" y1="18.3076172" x2="17.9111328" y2="34.065918"/>
			<path fill="#FFFFFF" d="M16.0498047,35.9272461c-1.0253906-1.0322266-1.0253906-2.6972656,0-3.7236328l15.7578125-15.7631836
				c1.0371094-1.0307617,2.703125-1.0258789,3.7265625,0c1.03125,1.0253906,1.03125,2.6962891,0,3.7280273L19.7783203,35.9272461
				C18.7470703,36.9526367,17.0830078,36.9526367,16.0498047,35.9272461z"/>
		</g>
	</g>
</g>
</svg>
