<svg xmlns="http://www.w3.org/2000/svg" width="51.024" height="51.024" viewBox="0 0 51.0244141 51.0239258"><radialGradient id="a" cx="25.513" cy="25.512" r="21.853" gradientTransform="matrix(.97288 0 0 .97287 .692 .692)" gradientUnits="userSpaceOnUse"><stop offset="0" stop-color="#d7da33"/><stop offset="1" stop-color="#029348"/></radialGradient><path fill="url(#a)" d="M46.772 25.512c0 11.742-9.517 21.26-21.263 21.26-11.738 0-21.256-9.518-21.256-21.26 0-11.745 9.518-21.26 21.256-21.26 11.746 0 21.263 9.515 21.263 21.26z"/><path opacity=".2" fill="#FFF" d="M37.915 10.682c0 2.464-5.553 4.46-12.406 4.46-6.846 0-12.4-1.996-12.4-4.46 0-2.466 5.554-4.46 12.4-4.46 6.853 0 12.406 1.994 12.406 4.46z"/><g><path fill="#F4F4F5" d="M23.966 38.478a2.33 2.33 0 0 1-1.85-.92L16.173 29.7a2.311 2.311 0 0 1 .45-3.246 2.31 2.31 0 0 1 3.245.449l3.912 5.164 9.842-15.798a2.32 2.32 0 0 1 3.193-.743 2.316 2.316 0 0 1 .74 3.196L25.939 37.383a2.324 2.324 0 0 1-1.867 1.093c-.031.002-.068.002-.105.002z"/></g></svg>