<svg xmlns="http://www.w3.org/2000/svg" width="51.024" height="51.024" viewBox="0 0 51.0244141 51.0239258"><radialGradient id="a" cx="25.513" cy="25.512" r="21.853" gradientTransform="matrix(.97288 0 0 .97287 .692 .692)" gradientUnits="userSpaceOnUse"><stop offset="0" stop-color="#e95d2c"/><stop offset="1" stop-color="#e42a28"/></radialGradient><path fill="url(#a)" d="M46.772 25.509c0 11.745-9.517 21.263-21.263 21.263-11.738 0-21.256-9.518-21.256-21.263 0-11.745 9.518-21.257 21.256-21.257 11.746 0 21.263 9.512 21.263 21.257z"/><path opacity=".2" fill="#FFF" d="M37.915 10.682c0 2.46-5.553 4.457-12.406 4.457-6.846 0-12.4-1.998-12.4-4.457 0-2.47 5.554-4.462 12.4-4.462 6.853 0 12.406 1.993 12.406 4.462z"/><g fill="#FFF"><path d="M17.911 18.308l15.764 15.758M31.808 35.931L16.05 20.168a2.632 2.632 0 0 1 0-3.723 2.627 2.627 0 0 1 3.722 0l15.762 15.759a2.634 2.634 0 0 1 0 3.727 2.64 2.64 0 0 1-3.726 0z"/><g><path d="M33.675 18.308L17.911 34.066M16.05 35.927a2.638 2.638 0 0 1 0-3.723L31.808 16.44a2.636 2.636 0 0 1 3.726 3.728l-15.756 15.76a2.644 2.644 0 0 1-3.728 0z"/></g></g></svg>