<?xml version="1.0" encoding="utf-8"?>
<!-- Generator: Adobe Illustrator 16.2.0, SVG Export Plug-In . SVG Version: 6.00 Build 0)  -->
<!DOCTYPE svg PUBLIC "-//W3C//DTD SVG 1.1//EN" "http://www.w3.org/Graphics/SVG/1.1/DTD/svg11.dtd">
<svg version="1.1" id="Слой_1" xmlns="http://www.w3.org/2000/svg" xmlns:xlink="http://www.w3.org/1999/xlink" x="0px" y="0px"
	 width="51.0244141px" height="51.0239258px" viewBox="0 0 51.0244141 51.0239258"
	 enable-background="new 0 0 51.0244141 51.0239258" xml:space="preserve">
<g>
	<g>
		
			<radialGradient id="SVGID_1_" cx="25.5126953" cy="25.5117188" r="21.8527832" gradientTransform="matrix(0.9728774 0 0 0.9728665 0.6923218 0.6924438)" gradientUnits="userSpaceOnUse">
			<stop  offset="0" style="stop-color:#D7DA33"/>
			<stop  offset="1" style="stop-color:#029348"/>
		</radialGradient>
		<path fill="url(#SVGID_1_)" d="M46.7724609,25.512207c0,11.7421875-9.5175781,21.2597656-21.2636719,21.2597656
			c-11.7382813,0-21.2558594-9.5175781-21.2558594-21.2597656c0-11.7451172,9.5175781-21.2597656,21.2558594-21.2597656
			C37.2548828,4.2524414,46.7724609,13.7670898,46.7724609,25.512207z"/>
		<path opacity="0.2" fill="#FFFFFF" d="M37.9150391,10.6821289c0,2.4638672-5.5527344,4.4599609-12.40625,4.4599609
			c-6.8457031,0-12.4003906-1.9960938-12.4003906-4.4599609c0-2.4658203,5.5546875-4.4599609,12.4003906-4.4599609
			C32.3623047,6.222168,37.9150391,8.2163086,37.9150391,10.6821289z"/>
	</g>
	<g>
		<g>
			<g>
				<path fill="#F4F4F5" d="M23.9658203,38.4780273c-0.7246094,0-1.40625-0.3408203-1.8496094-0.9199219l-5.9433594-7.8583984
					c-0.7714844-1.0224609-0.578125-2.4746094,0.4492188-3.2460938c1.0195313-0.7783203,2.4746094-0.5722656,3.2460938,0.4492188
					l3.9121094,5.1640625l9.8417969-15.7978516c0.6777344-1.0869141,2.1035156-1.4179688,3.1933594-0.7431641
					c1.0878906,0.6767578,1.421875,2.1074219,0.7402344,3.1962891L25.9384766,37.3833008
					c-0.40625,0.6513672-1.1054688,1.0585938-1.8671875,1.0927734
					C24.0400391,38.4780273,24.0029297,38.4780273,23.9658203,38.4780273z"/>
			</g>
		</g>
	</g>
</g>
</svg>
